<svg width="20" height="20" viewBox="0 0 20 20" fill="none" xmlns="http://www.w3.org/2000/svg">
<g id="uil:calender">
<path id="Vector" d="M15.8333 3.33366H14.1666V2.50033C14.1666 2.27931 14.0788 2.06735 13.9225 1.91107C13.7663 1.75479 13.5543 1.66699 13.3333 1.66699C13.1123 1.66699 12.9003 1.75479 12.744 1.91107C12.5878 2.06735 12.5 2.27931 12.5 2.50033V3.33366H7.49996V2.50033C7.49996 2.27931 7.41216 2.06735 7.25588 1.91107C7.0996 1.75479 6.88764 1.66699 6.66663 1.66699C6.44561 1.66699 6.23365 1.75479 6.07737 1.91107C5.92109 2.06735 5.83329 2.27931 5.83329 2.50033V3.33366H4.16663C3.50358 3.33366 2.8677 3.59705 2.39886 4.06589C1.93002 4.53473 1.66663 5.17062 1.66663 5.83366V15.8337C1.66663 16.4967 1.93002 17.1326 2.39886 17.6014C2.8677 18.0703 3.50358 18.3337 4.16663 18.3337H15.8333C16.4963 18.3337 17.1322 18.0703 17.6011 17.6014C18.0699 17.1326 18.3333 16.4967 18.3333 15.8337V5.83366C18.3333 5.17062 18.0699 4.53473 17.6011 4.06589C17.1322 3.59705 16.4963 3.33366 15.8333 3.33366ZM16.6666 15.8337C16.6666 16.0547 16.5788 16.2666 16.4225 16.4229C16.2663 16.5792 16.0543 16.667 15.8333 16.667H4.16663C3.94561 16.667 3.73365 16.5792 3.57737 16.4229C3.42109 16.2666 3.33329 16.0547 3.33329 15.8337V10.0003H16.6666V15.8337ZM16.6666 8.33366H3.33329V5.83366C3.33329 5.61264 3.42109 5.40068 3.57737 5.2444C3.73365 5.08812 3.94561 5.00033 4.16663 5.00033H5.83329V5.83366C5.83329 6.05467 5.92109 6.26663 6.07737 6.42291C6.23365 6.57919 6.44561 6.66699 6.66663 6.66699C6.88764 6.66699 7.0996 6.57919 7.25588 6.42291C7.41216 6.26663 7.49996 6.05467 7.49996 5.83366V5.00033H12.5V5.83366C12.5 6.05467 12.5878 6.26663 12.744 6.42291C12.9003 6.57919 13.1123 6.66699 13.3333 6.66699C13.5543 6.66699 13.7663 6.57919 13.9225 6.42291C14.0788 6.26663 14.1666 6.05467 14.1666 5.83366V5.00033H15.8333C16.0543 5.00033 16.2663 5.08812 16.4225 5.2444C16.5788 5.40068 16.6666 5.61264 16.6666 5.83366V8.33366Z" fill="#84878B"/>
</g>
</svg>
