<svg width="28" height="30" viewBox="0 0 28 30" fill="none" xmlns="http://www.w3.org/2000/svg">
<g id="Icon">
<path id="Vector" d="M1.4716 28.5262C1.38738 28.8094 1.4181 29.1136 1.55714 29.3757C1.69644 29.6379 1.93373 29.838 2.22 29.9353C2.50629 30.0327 2.82038 30.0198 3.09716 29.899L10.3697 26.7609C13.1955 27.4986 16.188 27.357 18.9263 26.3561C21.665 25.3548 24.0124 23.5445 25.6385 21.1795C27.2648 18.8142 28.0879 16.0132 27.9926 13.1697C27.8972 10.3259 26.888 7.58312 25.107 5.32601C23.3258 3.06889 20.862 1.41096 18.0623 0.58565C15.2622 -0.239921 12.2665 -0.191532 9.49615 0.723682C6.72577 1.63891 4.32 3.37509 2.61682 5.68838C0.913697 8.00166 -0.00155733 10.7756 1.98916e-06 13.6204C0.00635793 16.8262 1.18353 19.9255 3.32204 22.3653L1.4716 28.5262ZM2.37336 13.6207C2.37257 11.2417 3.14346 8.92278 4.57648 6.99462C6.0095 5.06634 8.03174 3.62655 10.3548 2.88081C12.6782 2.13481 15.1842 2.12064 17.5161 2.83987C19.8482 3.55936 21.8875 4.97568 23.3437 6.88749C24.7998 8.79929 25.5988 11.109 25.6266 13.4878C25.6544 15.8668 24.91 18.1934 23.4989 20.137C22.0879 22.0804 20.0821 23.5416 17.7675 24.3123C15.4528 25.0833 12.9473 25.1245 10.6068 24.4303C10.3425 24.3358 10.0525 24.3358 9.78821 24.4303L4.44923 26.7376L5.69499 22.3998C5.76093 22.2015 5.77047 21.9893 5.72227 21.7864C5.67433 21.5832 5.57052 21.3965 5.42221 21.2461C3.45428 19.1681 2.36526 16.4449 2.37292 13.62L2.37336 13.6207ZM8.06828 9.23671C8.06828 8.93078 8.19328 8.63721 8.41574 8.42089C8.63819 8.20458 8.9401 8.08303 9.25472 8.08303H18.7463C19.1702 8.08303 19.5619 8.30295 19.7738 8.65987C19.9856 9.01679 19.9856 9.45663 19.7738 9.81355C19.5619 10.1705 19.1702 10.3904 18.7463 10.3904H9.25472C8.9401 10.3904 8.63819 10.2688 8.41574 10.0525C8.19328 9.83621 8.06828 9.54264 8.06828 9.23671ZM8.06828 13.8514C8.06828 13.5455 8.19328 13.2519 8.41574 13.0356C8.63819 12.8193 8.9401 12.6977 9.25472 12.6977H18.7463C19.1702 12.6977 19.5619 12.9177 19.7738 13.2746C19.9856 13.6315 19.9856 14.0713 19.7738 14.4283C19.5619 14.7852 19.1702 15.0051 18.7463 15.0051H9.25472C8.9401 15.0051 8.63819 14.8835 8.41574 14.6672C8.19328 14.4509 8.06828 14.1573 8.06828 13.8514ZM8.06828 18.4661C8.06828 18.1602 8.19328 17.8666 8.41574 17.6503C8.63819 17.434 8.9401 17.3124 9.25472 17.3124H18.7463C19.1702 17.3124 19.5619 17.5324 19.7738 17.8893C19.9856 18.2462 19.9856 18.686 19.7738 19.043C19.5619 19.3999 19.1702 19.6198 18.7463 19.6198H9.25472C8.9401 19.6198 8.63819 19.4982 8.41574 19.2819C8.19328 19.0656 8.06828 18.772 8.06828 18.4661Z" fill="#3B3E44"/>
<path id="Vector_2" d="M3.03773 29.7613L3.03717 29.7615C2.79477 29.8673 2.5193 29.8787 2.26829 29.7933C2.01737 29.708 1.81063 29.5331 1.68965 29.3055C1.56897 29.0779 1.54245 28.8144 1.61531 28.5691C1.61533 28.5691 1.61535 28.569 1.61538 28.5689L3.4657 22.4084L3.48959 22.3289L3.43484 22.2664C1.31995 19.8535 0.15631 16.7893 0.150002 13.6202C0.148484 10.8078 1.0533 8.06505 2.73761 5.77731C4.42205 3.48949 6.80186 1.77175 9.5432 0.866111C12.2845 -0.0395249 15.249 -0.0874155 18.0198 0.729526L18.0623 0.58565L18.0198 0.729529C20.7903 1.5462 23.2276 3.18657 24.9892 5.41892C26.7506 7.65121 27.7484 10.3633 27.8426 13.1747C27.9369 15.9859 27.1232 18.7554 25.5149 21.0945C23.9068 23.4334 21.5847 25.2244 18.8748 26.2152C16.1652 27.2057 13.2039 27.3458 10.4076 26.6157L10.3577 26.6027L10.3103 26.6232L3.03773 29.7613ZM4.45609 6.90515C3.1081 8.71889 2.33801 10.8744 2.2352 13.1033L2.22437 13.0854L2.22292 13.6195C2.21515 16.4836 3.31928 19.2437 5.3133 21.3492L5.31328 21.3492L5.31541 21.3514C5.4447 21.4825 5.53475 21.6448 5.57627 21.8208L5.57633 21.821C5.61805 21.9967 5.60984 22.1805 5.55265 22.3524L5.55253 22.3524L5.55082 22.3584L4.30505 26.6962L4.21747 27.0012L4.50873 26.8753L9.84312 24.57C10.0736 24.4887 10.3261 24.4892 10.5563 24.5715L10.5562 24.5717L10.5641 24.5741C12.934 25.2771 15.471 25.2354 17.8149 24.4547C20.1587 23.6742 22.1906 22.1943 23.6203 20.2251C25.0501 18.2557 25.8048 15.8976 25.7766 13.4861C25.7484 11.0746 24.9385 8.73377 23.4631 6.7966L23.3437 6.88749L23.4631 6.7966C21.9875 4.85949 19.9218 3.4251 17.5604 2.69653L17.5161 2.83987L17.5604 2.69653C15.1991 1.96825 12.6616 1.98259 10.3089 2.73799C7.95657 3.49314 5.90809 4.95132 4.45609 6.90515ZM8.21828 9.23671C8.21828 8.97192 8.32644 8.71695 8.52031 8.52843C8.71432 8.33978 8.97853 8.23303 9.25472 8.23303H18.7463C19.1187 8.23303 19.4607 8.42622 19.6448 8.73644C19.8286 9.04616 19.8286 9.42727 19.6448 9.73698C19.4607 10.0472 19.1187 10.2404 18.7463 10.2404H9.25472C8.97853 10.2404 8.71432 10.1336 8.52031 9.94498C8.32644 9.75647 8.21828 9.5015 8.21828 9.23671ZM8.21828 13.8514C8.21828 13.5866 8.32644 13.3317 8.52031 13.1431C8.71432 12.9545 8.97853 12.8477 9.25472 12.8477H18.7463C19.1187 12.8477 19.4607 13.0409 19.6448 13.3511C19.8286 13.6609 19.8286 14.042 19.6448 14.3517C19.4607 14.6619 19.1187 14.8551 18.7463 14.8551H9.25472C8.97853 14.8551 8.71432 14.7483 8.52031 14.5597C8.32644 14.3712 8.21828 14.1162 8.21828 13.8514ZM8.21828 18.4661C8.21828 18.2013 8.32644 17.9464 8.52031 17.7578C8.71432 17.5692 8.97853 17.4624 9.25472 17.4624H18.7463C19.1187 17.4624 19.4607 17.6556 19.6448 17.9658C19.8286 18.2756 19.8286 18.6567 19.6448 18.9664C19.4607 19.2766 19.1187 19.4698 18.7463 19.4698H9.25472C8.97853 19.4698 8.71432 19.363 8.52031 19.1744C8.32644 18.9859 8.21828 18.7309 8.21828 18.4661Z" stroke="white" stroke-width="0.3"/>
</g>
</svg>
