<svg width="25" height="30" viewBox="0 0 25 30" fill="none" xmlns="http://www.w3.org/2000/svg">
<path id="Vector" d="M24.3273 21.209V21.2088C23.2786 19.9623 22.7245 18.4921 22.7245 16.9576V12.2718C22.7245 9.93861 21.6598 7.74791 19.7276 6.10483C18.6615 5.19529 17.4006 4.51245 16.0268 4.08308C16.0281 4.03991 16.0289 3.99695 16.0289 3.95356C16.0292 1.73647 14.4788 0 12.4998 0C10.5208 0 8.97053 1.73647 8.97053 3.95356C8.97053 4.00356 8.97156 4.05312 8.97337 4.10268C5.07204 5.36444 2.2754 8.65433 2.2754 12.4796V16.9573C2.2754 18.4917 1.72135 19.9619 0.67262 21.2087C0.00778094 21.9988 -0.174441 22.9837 0.171753 23.9111C0.51642 24.8333 1.32813 25.5425 2.39853 25.8568C4.10045 26.356 5.94903 26.7229 7.87712 26.9485C8.2094 28.6726 10.1558 30 12.5001 30C14.8443 30 16.7908 28.6726 17.1227 26.9485C19.0508 26.7227 20.8994 26.3559 22.6013 25.8568C23.672 25.5425 24.4835 24.8336 24.8281 23.9111C25.1746 22.9839 24.9921 21.9988 24.3275 21.2087L24.3273 21.209ZM12.4998 1.57912C13.2385 1.57912 14.0553 2.42302 14.1656 3.66736C13.5849 3.58651 12.9919 3.54797 12.3919 3.55326C11.8621 3.55788 11.3416 3.59841 10.8332 3.67177C10.9424 2.42501 11.7603 1.57913 12.4998 1.57913V1.57912ZM12.4998 28.4215C11.2936 28.4215 10.2619 27.8836 9.85888 27.1291C10.73 27.1862 11.6122 27.215 12.4998 27.215C13.3874 27.215 14.2696 27.1862 15.1407 27.1291C14.7377 27.8836 13.706 28.4215 12.4998 28.4215ZM23.0649 23.432C22.8997 23.8739 22.5116 24.2137 21.9994 24.364C19.1625 25.1964 15.8775 25.6361 12.4997 25.6361C9.12199 25.6361 5.83745 25.1964 3.00004 24.364C2.48807 24.2137 2.09977 23.8738 1.93454 23.432C1.7675 22.985 1.85528 22.5101 2.17568 22.1297C3.45109 20.613 4.12545 18.8246 4.12545 16.9577V12.4801C4.12545 8.46859 7.84218 5.17234 12.411 5.1323C12.4409 5.13208 12.4704 5.13208 12.4998 5.13208C14.7379 5.13208 16.837 5.87244 18.4196 7.22274C20.0022 8.56841 20.8736 10.3617 20.8736 12.2722V16.958C20.8736 18.8251 21.5479 20.6133 22.8234 22.13V22.1297C23.1435 22.5106 23.2313 22.9855 23.0645 23.4323L23.0649 23.432Z" fill="#3B3E44"/>
</svg>
