<svg width="186" height="41" xmlns="http://www.w3.org/2000/svg" xmlns:xlink="http://www.w3.org/1999/xlink" viewBox="0 0 654.38 160.92"><defs><linearGradient id="linear-gradient" y1="79.99" x2="130.82" y2="79.99" gradientUnits="userSpaceOnUse"><stop offset="0" stop-color="#010440"></stop><stop offset="0.51" stop-color="#008f8c"></stop></linearGradient><linearGradient id="linear-gradient-2" x1="28.27" y1="79.7" x2="93.28" y2="79.7" xlink:href="#linear-gradient"></linearGradient><linearGradient id="linear-gradient-3" x1="265.14" y1="79.37" x2="359.64" y2="79.37" xlink:href="#linear-gradient"></linearGradient><linearGradient id="linear-gradient-4" x1="109.88" y1="10.18" x2="235.66" y2="10.18" gradientUnits="userSpaceOnUse"><stop offset="0" stop-color="#414042"></stop><stop offset="0.99" stop-color="#a7a9ac"></stop></linearGradient><linearGradient id="linear-gradient-5" x1="148.55" y1="77.53" x2="222.2" y2="77.53" gradientUnits="userSpaceOnUse"><stop offset="0.01" stop-color="#a7a9ac"></stop><stop offset="1" stop-color="#414042"></stop></linearGradient><linearGradient id="linear-gradient-6" x1="112.16" y1="148.55" x2="235.34" y2="148.55" xlink:href="#linear-gradient-4"></linearGradient><linearGradient id="linear-gradient-7" x1="392.76" y1="118.57" x2="438.17" y2="118.57" xlink:href="#linear-gradient-5"></linearGradient><linearGradient id="linear-gradient-8" x1="468.26" y1="118.57" x2="521.47" y2="118.57" xlink:href="#linear-gradient-5"></linearGradient><linearGradient id="linear-gradient-9" x1="529.09" y1="128.78" x2="608.64" y2="128.78" xlink:href="#linear-gradient-5"></linearGradient><linearGradient id="linear-gradient-10" x1="446.85" y1="128.38" x2="455.67" y2="128.38" xlink:href="#linear-gradient-5"></linearGradient><linearGradient id="linear-gradient-11" x1="445.47" y1="84.08" x2="459.81" y2="84.08" xlink:href="#linear-gradient-5"></linearGradient><linearGradient id="linear-gradient-12" x1="616.13" y1="118.39" x2="654.38" y2="118.39" gradientUnits="userSpaceOnUse"><stop offset="0" stop-color="#0fc2c0"></stop><stop offset="1" stop-color="#0f5937"></stop></linearGradient><linearGradient id="linear-gradient-13" x1="347.41" y1="118.21" x2="385.66" y2="118.21" xlink:href="#linear-gradient-12"></linearGradient></defs><title>Asset 1</title><g id="Layer_2" data-name="Layer 2"><g id="Layer_1-2" data-name="Layer 1"><path class="cls-1" d="M57.23,160H0L23.1,133.5H57.23c26.77-3.67,47.3-24.87,47.3-52.75S84,31.91,57.23,28.3H25.58L0,0H57.23c41.49,4.74,73.59,36.85,73.59,79.77S98.72,155.19,57.23,160Z"></path><path class="cls-2" d="M57.23,105.26H41.56L28.27,117.48h29C77.63,115,93.28,100.2,93.28,79.7S77.63,44.42,57.23,41.91H29.74L41.86,53.83H57.23c13.44,2.07,23.63,12,23.63,25.72S70.67,103.17,57.23,105.26Z"></path><path class="cls-3" d="M265.14,129.37,330.26,0h29.38s-78.45,158.75-79.36,158.75S265.14,129.37,265.14,129.37Z"></path><path class="cls-4" d="M109.88,1.46H227.33s18.74,7.75,0,17.44H130.7S120,7.4,109.88,1.46Z"></path><path class="cls-5" d="M139,10.28c0,3.58-1.33,5.56-3.66,5.56-2.06,0-3.45-1.93-3.48-5.41S133.4,5,135.54,5,139,6.93,139,10.28Zm-5.72.16c0,2.74.85,4.3,2.14,4.3,1.46,0,2.16-1.7,2.16-4.39s-.67-4.3-2.14-4.3C134.21,6.05,133.3,7.58,133.3,10.44Z"></path><path class="cls-5" d="M147.82,6.46h0l-1.84,1-.27-1.09L148,5.13h1.22V15.66h-1.38Z"></path><path class="cls-5" d="M159.09,6.46h0l-1.83,1L157,6.36l2.3-1.23h1.22V15.66h-1.38Z"></path><path class="cls-5" d="M174.74,10.28c0,3.58-1.33,5.56-3.66,5.56-2.06,0-3.45-1.93-3.48-5.41S169.12,5,171.26,5,174.74,6.93,174.74,10.28Zm-5.72.16c0,2.74.84,4.3,2.14,4.3,1.46,0,2.15-1.7,2.15-4.39s-.66-4.3-2.13-4.3C169.93,6.05,169,7.58,169,10.44Z"></path><path class="cls-5" d="M186.49,10.28c0,3.58-1.33,5.56-3.66,5.56-2.06,0-3.46-1.93-3.49-5.41S180.87,5,183,5,186.49,6.93,186.49,10.28Zm-5.72.16c0,2.74.84,4.3,2.14,4.3,1.45,0,2.15-1.7,2.15-4.39s-.66-4.3-2.14-4.3C181.68,6.05,180.77,7.58,180.77,10.44Z"></path><path class="cls-5" d="M194.33,6.46h0l-1.83,1-.28-1.09,2.3-1.23h1.22V15.66h-1.38Z"></path><path class="cls-5" d="M210.46,10.28c0,3.58-1.33,5.56-3.66,5.56-2.06,0-3.45-1.93-3.49-5.41S204.84,5,207,5,210.46,6.93,210.46,10.28Zm-5.72.16c0,2.74.84,4.3,2.14,4.3,1.46,0,2.15-1.7,2.15-4.39s-.66-4.3-2.14-4.3C205.65,6.05,204.74,7.58,204.74,10.44Z"></path><path class="cls-5" d="M222.68,10.28c0,3.58-1.33,5.56-3.66,5.56-2.06,0-3.45-1.93-3.48-5.41S217.06,5,219.2,5,222.68,6.93,222.68,10.28Zm-5.72.16c0,2.74.84,4.3,2.14,4.3,1.46,0,2.16-1.7,2.16-4.39s-.67-4.3-2.14-4.3C217.87,6.05,217,7.58,217,10.44Z"></path><path class="cls-6" d="M148,31.65c0,3.58-1.33,5.56-3.66,5.56-2.06,0-3.45-1.93-3.48-5.41s1.52-5.48,3.66-5.48S148,28.3,148,31.65Zm-5.72.16c0,2.74.85,4.3,2.14,4.3,1.46,0,2.16-1.71,2.16-4.39s-.67-4.3-2.14-4.3C143.16,27.42,142.25,28.94,142.25,31.81Z"></path><path class="cls-6" d="M151,27.83h0l-1.83,1-.28-1.09,2.3-1.23h1.22V37H151Z"></path><path class="cls-6" d="M161.74,31.65c0,3.58-1.33,5.56-3.66,5.56-2.06,0-3.46-1.93-3.49-5.41s1.53-5.48,3.66-5.48S161.74,28.3,161.74,31.65Zm-5.72.16c0,2.74.84,4.3,2.14,4.3,1.45,0,2.15-1.71,2.15-4.39s-.66-4.3-2.14-4.3C156.93,27.42,156,28.94,156,31.81Z"></path><path class="cls-6" d="M171,31.65c0,3.58-1.33,5.56-3.66,5.56-2.06,0-3.45-1.93-3.48-5.41s1.52-5.48,3.66-5.48S171,28.3,171,31.65Zm-5.72.16c0,2.74.85,4.3,2.14,4.3,1.46,0,2.16-1.71,2.16-4.39s-.67-4.3-2.14-4.3C166.19,27.42,165.28,28.94,165.28,31.81Z"></path><path class="cls-6" d="M180.27,31.65c0,3.58-1.33,5.56-3.66,5.56-2.06,0-3.46-1.93-3.49-5.41s1.53-5.48,3.66-5.48S180.27,28.3,180.27,31.65Zm-5.72.16c0,2.74.84,4.3,2.14,4.3s2.15-1.71,2.15-4.39-.66-4.3-2.14-4.3C175.46,27.42,174.55,28.94,174.55,31.81Z"></path><path class="cls-6" d="M183.25,27.83h0l-1.83,1-.27-1.09,2.3-1.23h1.21V37h-1.37Z"></path><path class="cls-6" d="M194,31.65c0,3.58-1.33,5.56-3.66,5.56-2.06,0-3.45-1.93-3.48-5.41s1.52-5.48,3.66-5.48S194,28.3,194,31.65Zm-5.72.16c0,2.74.85,4.3,2.14,4.3,1.46,0,2.16-1.71,2.16-4.39s-.67-4.3-2.14-4.3C189.22,27.42,188.31,28.94,188.31,31.81Z"></path><path class="cls-6" d="M197,27.83h0l-1.83,1-.28-1.09,2.3-1.23h1.22V37H197Z"></path><path class="cls-6" d="M155.23,52.83c0,3.58-1.33,5.56-3.67,5.56-2.05,0-3.45-1.93-3.48-5.41s1.52-5.48,3.66-5.48S155.23,49.48,155.23,52.83Zm-5.72.16c0,2.74.84,4.3,2.14,4.3s2.15-1.7,2.15-4.39-.66-4.3-2.14-4.3C150.41,48.6,149.51,50.13,149.51,53Z"></path><path class="cls-6" d="M157.73,49h0l-1.83,1-.27-1.09,2.3-1.23h1.21V58.21h-1.37Z"></path><path class="cls-6" d="M161.75,49h0l-1.83,1-.28-1.09,2.3-1.23h1.22V58.21h-1.38Z"></path><path class="cls-6" d="M165.77,49h0l-1.83,1-.28-1.09,2.31-1.23h1.21V58.21h-1.38Z"></path><path class="cls-6" d="M175.13,52.83c0,3.58-1.33,5.56-3.66,5.56-2.06,0-3.45-1.93-3.48-5.41s1.52-5.48,3.66-5.48S175.13,49.48,175.13,52.83Zm-5.72.16c0,2.74.84,4.3,2.14,4.3,1.46,0,2.15-1.7,2.15-4.39s-.66-4.3-2.13-4.3C170.32,48.6,169.41,50.13,169.41,53Z"></path><path class="cls-6" d="M177.63,49h0l-1.83,1-.28-1.09,2.3-1.23H179V58.21h-1.38Z"></path><path class="cls-6" d="M181.65,49h0l-1.83,1-.27-1.09,2.3-1.23H183V58.21h-1.38Z"></path><path class="cls-6" d="M191,52.83c0,3.58-1.33,5.56-3.66,5.56-2.06,0-3.45-1.93-3.48-5.41s1.52-5.48,3.66-5.48S191,49.48,191,52.83Zm-5.72.16c0,2.74.85,4.3,2.14,4.3,1.46,0,2.16-1.7,2.16-4.39s-.67-4.3-2.14-4.3C186.2,48.6,185.29,50.13,185.29,53Z"></path><path class="cls-7" d="M148.84,69.23H215.5s15.08,6.48,0,16.59H148.55S149.66,79.91,148.84,69.23Z"></path><text class="cls-8" transform="translate(151.08 83.36)">01000110</text><path class="cls-6" d="M154.85,101.87c0,3.58-1.33,5.56-3.66,5.56-2.06,0-3.45-1.93-3.48-5.42s1.52-5.47,3.66-5.47S154.85,98.51,154.85,101.87Zm-5.72.16c0,2.74.84,4.29,2.14,4.29,1.46,0,2.16-1.7,2.16-4.39s-.67-4.29-2.14-4.29C150,97.64,149.13,99.16,149.13,102Z"></path><path class="cls-6" d="M157.35,98h0l-1.83,1L155.21,98l2.3-1.23h1.22v10.53h-1.38Z"></path><path class="cls-6" d="M161.85,98h0L160,99,159.71,98l2.3-1.23h1.22v10.53h-1.38Z"></path><path class="cls-6" d="M171.69,101.87c0,3.58-1.33,5.56-3.67,5.56-2.05,0-3.45-1.93-3.48-5.42s1.52-5.47,3.66-5.47S171.69,98.51,171.69,101.87ZM166,102c0,2.74.84,4.29,2.13,4.29,1.46,0,2.16-1.7,2.16-4.39s-.66-4.29-2.14-4.29C166.87,97.64,166,99.16,166,102Z"></path><path class="cls-6" d="M174.66,98h0l-1.83,1L172.52,98l2.31-1.23H176v10.53h-1.38Z"></path><path class="cls-6" d="M179.16,98h0l-1.83,1L177,98l2.3-1.23h1.22v10.53h-1.38Z"></path><path class="cls-6" d="M189,101.87c0,3.58-1.33,5.56-3.66,5.56-2.06,0-3.46-1.93-3.49-5.42s1.52-5.47,3.66-5.47S189,98.51,189,101.87Zm-5.72.16c0,2.74.84,4.29,2.14,4.29,1.45,0,2.15-1.7,2.15-4.39s-.66-4.29-2.14-4.29C184.18,97.64,183.28,99.16,183.28,102Z"></path><path class="cls-6" d="M196.83,101.87c0,3.58-1.33,5.56-3.66,5.56-2.06,0-3.45-1.93-3.48-5.42s1.52-5.47,3.66-5.47S196.83,98.51,196.83,101.87Zm-5.72.16c0,2.74.85,4.29,2.14,4.29,1.46,0,2.16-1.7,2.16-4.39s-.67-4.29-2.14-4.29C192,97.64,191.11,99.16,191.11,102Z"></path><text class="cls-9" transform="translate(141.5 130.51)">01010010</text><path class="cls-10" d="M112.16,157.47l115.05-.39s18.33-7.81-.06-17.44L132.5,140S122,151.5,112.16,157.47Z"></path><path class="cls-11" d="M139.5,148.16c0,3.58-1.32,5.56-3.66,5.56-2.06,0-3.45-1.93-3.48-5.42s1.52-5.47,3.66-5.47S139.5,144.8,139.5,148.16Zm-5.72.16c0,2.74.85,4.29,2.14,4.29,1.46,0,2.16-1.7,2.16-4.39s-.67-4.29-2.14-4.29C134.69,143.93,133.78,145.45,133.78,148.32Z"></path><path class="cls-11" d="M148.78,144.34h0l-1.83,1-.27-1.08,2.3-1.23h1.21v10.53h-1.37Z"></path><path class="cls-11" d="M160.52,144.34h0l-1.83,1-.28-1.08,2.3-1.23h1.22v10.53h-1.38Z"></path><path class="cls-11" d="M175.7,148.16c0,3.58-1.33,5.56-3.66,5.56-2.06,0-3.45-1.93-3.49-5.42s1.53-5.47,3.66-5.47S175.7,144.8,175.7,148.16Zm-5.72.16c0,2.74.84,4.29,2.14,4.29,1.46,0,2.15-1.7,2.15-4.39s-.66-4.29-2.14-4.29C170.89,143.93,170,145.45,170,148.32Z"></path><path class="cls-11" d="M184.49,144.34h0l-1.83,1-.28-1.08,2.31-1.23h1.21v10.53h-1.38Z"></path><path class="cls-11" d="M195.76,144.34h0l-1.83,1-.27-1.08,2.3-1.23h1.21v10.53h-1.38Z"></path><path class="cls-11" d="M211.89,148.16c0,3.58-1.33,5.56-3.66,5.56-2.06,0-3.45-1.93-3.48-5.42s1.52-5.47,3.66-5.47S211.89,144.8,211.89,148.16Zm-5.72.16c0,2.74.85,4.29,2.14,4.29,1.46,0,2.16-1.7,2.16-4.39s-.67-4.29-2.14-4.29C207.08,143.93,206.17,145.45,206.17,148.32Z"></path><path class="cls-11" d="M220.69,144.34h0l-1.84,1-.27-1.08,2.3-1.23h1.22v10.53h-1.38Z"></path><path class="cls-12" d="M402,153.79l-9.27,5.71V77.65h45.41L434.28,86H402V110.6h32V119H402Z"></path><path class="cls-13" d="M477.54,122.26v31.53l-9.28,5.71V77.65H488a81.71,81.71,0,0,1,8.5.37,40.49,40.49,0,0,1,6.39,1.17q8,2.16,12.17,7.37a20,20,0,0,1,4.2,13,21.7,21.7,0,0,1-1.48,8.25,18.87,18.87,0,0,1-4.15,6.32,22,22,0,0,1-6.4,4.38,33.8,33.8,0,0,1-8.28,2.5v.23l22.53,32.55H512.2l-23.45-31.53Zm0-36.25V113.9h9.16c2.85,0,5.27-.1,7.29-.29a27,27,0,0,0,5.4-1,14.89,14.89,0,0,0,7.46-4.72,13.13,13.13,0,0,0,2.61-8.48,12.24,12.24,0,0,0-2.5-7.88,13.48,13.48,0,0,0-6.77-4.3,25.57,25.57,0,0,0-4.9-.91q-2.84-.28-7.22-.29Z"></path><path class="cls-14" d="M573.25,153.79h-8.82V119a20.49,20.49,0,0,0-.77-6,10.54,10.54,0,0,0-2.22-4.07,8.83,8.83,0,0,0-3.47-2.34,13.2,13.2,0,0,0-4.53-.74,15.34,15.34,0,0,0-8.59,2.54,25.56,25.56,0,0,0-6.94,7v38.41h-8.82V99.73h6.83l1.7,7.51h.17a31.43,31.43,0,0,1,3.22-3.5,20.74,20.74,0,0,1,3.87-2.84A19.15,19.15,0,0,1,549.57,99a21.44,21.44,0,0,1,5.58-.68,16.55,16.55,0,0,1,10,2.9,18.69,18.69,0,0,1,6.14,7.91h.23a28.69,28.69,0,0,1,8.21-7.94,19.88,19.88,0,0,1,10.77-2.87,25,25,0,0,1,6,.79,15.31,15.31,0,0,1,5.87,2.93,16.21,16.21,0,0,1,4.44,5.89,22.81,22.81,0,0,1,1.77,9.68v41.64l-8.82-5.45V119a20.16,20.16,0,0,0-.77-6,10.54,10.54,0,0,0-2.22-4.07,8.68,8.68,0,0,0-3.47-2.34,13.1,13.1,0,0,0-4.52-.74,15.49,15.49,0,0,0-8.62,2.54,25.37,25.37,0,0,0-7,7Z"></path><path class="cls-15" d="M446.85,153.79V99.73h8.82V157Z"></path><polygon class="cls-16" points="450.62 94.02 445.47 86.51 454.91 74.14 459.81 81.98 450.62 94.02"></polygon><polygon class="cls-17" points="616.13 75.86 631.5 75.86 654.38 118.37 631.5 160.92 616.13 160.92 640.11 118.37 616.13 75.86"></polygon><polygon class="cls-18" points="385.66 75.68 370.29 75.68 347.41 118.2 370.29 160.74 385.66 160.74 361.68 118.2 385.66 75.68"></polygon></g></g></svg>